<svg xmlns="http://www.w3.org/2000/svg" xmlns:xlink="http://www.w3.org/1999/xlink" width="400" height="400" viewBox="0 0 400 400">
<rect data-name="background" width="100%" height="100%" fill="none"/><g data-name="icon" fill="#40b4c9" data="id:7955269" transform="translate(123.79954485920655, 73.62212401410957) scale(1.5240103818162811)">
  
 <path d="m3.2969 62.258c-1.2695 0-2.2969-1.0273-2.2969-2.2969 0-1.2695 1.0273-2.2969 2.2969-2.2969h24.211c1.2695 0 2.2969 1.0273 2.2969 2.2969 0 1.2695-1.0273 2.2969-2.2969 2.2969h-11.75c2.3711 6.6367 6.625 12.379 12.109 16.594 6.1289 4.707 13.801 7.5039 22.133 7.5039 9.0469 0 17.312-3.2969 23.672-8.75 5.7969-4.9727 10.004-11.742 11.77-19.445h-18.73l-8.6055 13.23c-0.28125 0.49609-0.74609 0.88672-1.3398 1.0625-1.2109 0.35938-2.4883-0.32812-2.8516-1.543l-10.801-35.777-6.5664 10.098c-0.39062 0.71875-1.1484 1.207-2.0234 1.207h-29.414c-1.2695 0-2.2969-1.0273-2.2969-2.2969s1.0273-2.2969 2.2969-2.2969h4.7539c1.8438-9.0977 6.6992-17.102 13.484-22.926 7.1641-6.1484 16.477-9.8633 26.648-9.8633 9.3711 0 18.008 3.1523 24.914 8.4531 6.6016 5.0703 11.617 12.109 14.164 20.238h7.6289c1.2695 0 2.2969 1.0273 2.2969 2.2969s-1.0273 2.2969-2.2969 2.2969h-24.211c-1.2695 0-2.2969-1.0273-2.2969-2.2969s1.0273-2.2969 2.2969-2.2969h11.75c-2.3711-6.6367-6.625-12.379-12.109-16.594-6.1289-4.707-13.801-7.5039-22.133-7.5039-9.0469 0-17.312 3.2969-23.672 8.75-5.7969 4.9727-10.004 11.742-11.77 19.445h18.73l8.6797-13.344c0.69141-1.0625 2.1055-1.3633 3.168-0.67188 0.47266 0.30859 0.79688 0.76172 0.94922 1.2656h0.003906l10.801 35.777 6.6719-10.258c0.4375-0.67578 1.1719-1.0391 1.9219-1.043v-0.007812h29.414c1.2695 0 2.2969 1.0273 2.2969 2.2969s-1.0273 2.2969-2.2969 2.2969h-4.7539c-1.8438 9.0977-6.6992 17.102-13.484 22.926-7.1641 6.1484-16.477 9.8633-26.648 9.8633-9.3711 0-18.008-3.1523-24.914-8.4531-6.6016-5.0703-11.617-12.109-14.164-20.238h-7.6289z"/>

  </g><g data-name="business_name" fill="#ffffff" data="id:40" transform="translate(62.225812990105105, 204.37985609740988) scale(1.6732352143847484)"><path d="M15.04,19.12q2.6,0,4.2,0.78t3,1.82q0.52,0.4,0.8,0.4q0.76,0,1-2.44l0.92,0q-0.08,1.48-0.12,3.6t-0.04,5.6l-0.92,0q-0.28-1.68-0.68-3.24t-1.32-2.68q-1.16-1.48-3.04-2.3t-3.88-0.82t-3.62,0.98t-2.78,2.82t-1.78,4.42t-0.62,5.82q0,7.2,2.32,10.54t7.2,3.34q1.44,0,2.5-0.42t1.66-0.82q0.76-0.52,0.96-0.98t0.2-1.22l0-3.84q0-1.64-0.32-2.44t-1.18-1.08t-2.54-0.32l0-0.8q0.72,0.04,1.68,0.06t2.02,0.04t1.94,0.02q1.32,0,2.38-0.04t1.78-0.08l0,0.8q-0.88,0.04-1.32,0.28t-0.58,0.96t-0.14,2.2l0,7.92l-0.8,0q-0.04-0.68-0.3-1.48t-0.78-0.8q-0.24,0-0.48,0.12t-0.84,0.56q-1.32,1-2.8,1.58t-3.44,0.58q-4.12,0-7.06-1.7t-4.5-4.9t-1.56-7.64q0-4.68,1.68-8.08t4.58-5.26t6.62-1.86z M39.08,26.84q2.56,0,4.6,1.12t3.26,3.52t1.22,6.24t-1.22,6.22t-3.26,3.5t-4.6,1.12q-2.52,0-4.58-1.12t-3.28-3.5t-1.22-6.22t1.22-6.24t3.28-3.52t4.58-1.12z M39.08,27.64q-2.28,0-3.74,2.36t-1.46,7.72t1.46,7.7t3.74,2.34t3.74-2.34t1.46-7.7t-1.46-7.72t-3.74-2.36z M61,26.84q2.56,0,4.6,1.12t3.26,3.52t1.22,6.24t-1.22,6.22t-3.26,3.5t-4.6,1.12q-2.52,0-4.58-1.12t-3.28-3.5t-1.22-6.22t1.22-6.24t3.28-3.52t4.58-1.12z M61,27.64q-2.28,0-3.74,2.36t-1.46,7.72t1.46,7.7t3.74,2.34t3.74-2.34t1.46-7.7t-1.46-7.72t-3.74-2.36z M91.32,16.64l0,27q0,1.8,0.66,2.66t2.38,0.86l0,0.84q-1.24-0.12-2.48-0.12q-1.16,0-2.22,0.12t-1.94,0.44l0-27q0-1.8-0.64-2.66t-2.4-0.86l0-0.84q1.28,0.12,2.48,0.12q1.16,0,2.22-0.14t1.94-0.42z M82.92,26.84q1.76,0,3.3,0.84t2.06,2.88l-0.52,0.4q-0.56-1.68-1.74-2.44t-2.78-0.76q-2.36,0-3.94,2.44t-1.54,7.52q0,3.24,0.62,5.38t1.84,3.2t2.98,1.06q1.68,0,3.04-1.44t1.64-4.24l0.48,0.56q-0.32,3.04-1.94,4.68t-4.38,1.64q-2.48,0-4.34-1.2t-2.84-3.6t-0.98-6.04t1.26-6.06t3.32-3.62t4.46-1.2z M104.96,26.84q2.76,0,4.38,1.3t1.62,3.74q0,1.6-0.74,3.02t-1.94,2.72t-2.56,2.52t-2.64,2.4t-2.16,2.38l8.12,0q1.64,0,2.08-0.46t0.6-1.58l0.68,0q0,2.12,0.04,3.26t0.12,2.06q-0.36-0.08-1.32-0.12t-2.2-0.06t-2.44-0.02l-9.36,0l0-0.68q1.2-1.32,2.88-2.82t3.26-3.28t2.64-3.88t1.06-4.58q0-2.28-1.06-3.3t-2.94-1.02q-1.6,0-2.96,0.94t-2.4,2.82l-0.64-0.36q0.6-1.28,1.62-2.42t2.56-1.86t3.7-0.72z M129.4,19.12q2.6,0,4.2,0.78t3,1.82q0.52,0.4,0.8,0.4q0.76,0,1-2.44l0.92,0q-0.08,1.48-0.12,3.6t-0.04,5.6l-0.92,0q-0.28-1.68-0.68-3.24t-1.32-2.68q-1.16-1.48-3.04-2.3t-3.88-0.82t-3.62,0.98t-2.78,2.82t-1.78,4.42t-0.62,5.82q0,7.2,2.32,10.54t7.2,3.34q1.44,0,2.5-0.42t1.66-0.82q0.76-0.52,0.96-0.98t0.2-1.22l0-3.84q0-1.64-0.32-2.44t-1.18-1.08t-2.54-0.32l0-0.8q0.72,0.04,1.68,0.06t2.02,0.04t1.94,0.02q1.32,0,2.38-0.04t1.78-0.08l0,0.8q-0.88,0.04-1.32,0.28t-0.58,0.96t-0.14,2.2l0,7.92l-0.8,0q-0.04-0.68-0.3-1.48t-0.78-0.8q-0.24,0-0.48,0.12t-0.84,0.56q-1.32,1-2.8,1.58t-3.44,0.58q-4.12,0-7.06-1.7t-4.5-4.9t-1.56-7.64q0-4.68,1.68-8.08t4.58-5.26t6.62-1.86z M153.44,26.84q2.56,0,4.6,1.12t3.26,3.52t1.22,6.24t-1.22,6.22t-3.26,3.5t-4.6,1.12q-2.52,0-4.58-1.12t-3.28-3.5t-1.22-6.22t1.22-6.24t3.28-3.52t4.58-1.12z M153.44,27.64q-2.28,0-3.74,2.36t-1.46,7.72t1.46,7.7t3.74,2.34t3.74-2.34t1.46-7.7t-1.46-7.72t-3.74-2.36z"/></g><g data-name="slogan" fill="#40b4c9" data="id:304" transform="translate(63.86304488273884, 286.21809861945405) scale(0.47070372760448403)"><path d="M4.2,48l0-28l10.92,0q3.68,0,6.28,1.16t4,3.36t1.4,5.24t-1.4,5.22t-4,3.34t-6.28,1.16l-8.72,0l1.8-1.84l0,10.36l-4,0z M22.92,48l-7.12-10.16l4.28,0l7.2,10.16l-4.36,0z M8.2,38.04l-1.8-1.96l8.6,0q3.84,0,5.82-1.66t1.98-4.66t-1.98-4.64t-5.82-1.64l-8.6,0l1.8-2l0,16.56z M42.16,48.24q-3.4,0-5.98-1.4t-4-3.84t-1.42-5.6t1.38-5.6t3.8-3.82t5.46-1.38q3.08,0,5.44,1.36t3.7,3.82t1.34,5.74q0,0.24-0.02,0.56t-0.06,0.6l-18.04,0l0-2.76l16.04,0l-1.56,0.96q0.04-2.04-0.84-3.64t-2.42-2.5t-3.58-0.9q-2,0-3.56,0.9t-2.44,2.52t-0.88,3.7l0,0.64q0,2.12,0.98,3.78t2.74,2.58t4.04,0.92q1.88,0,3.42-0.64t2.7-1.92l2.12,2.48q-1.44,1.68-3.58,2.56t-4.78,0.88z M66.44,48.24q-3.24,0-5.78-1.4t-3.98-3.84t-1.44-5.6t1.44-5.6t3.98-3.82t5.78-1.38q2.88,0,5.14,1.14t3.5,3.38l-2.92,1.88q-1.04-1.56-2.54-2.3t-3.22-0.74q-2.08,0-3.72,0.92t-2.6,2.58t-0.96,3.94t0.96,3.96t2.6,2.6t3.72,0.92q1.72,0,3.22-0.74t2.54-2.3l2.92,1.84q-1.24,2.2-3.5,3.38t-5.14,1.18z M89.12,48.24q-3.2,0-5.68-1.4t-3.92-3.86t-1.44-5.58q0-3.16,1.44-5.6t3.92-3.82t5.68-1.38q3.16,0,5.66,1.38t3.92,3.8t1.42,5.62q0,3.16-1.42,5.6t-3.92,3.84t-5.66,1.4z M89.12,44.88q2.04,0,3.66-0.92t2.54-2.62t0.92-3.94q0-2.28-0.92-3.94t-2.54-2.58t-3.66-0.92t-3.64,0.92t-2.56,2.58t-0.96,3.94q0,2.24,0.96,3.94t2.56,2.62t3.64,0.92z M111,48l-9.28-21.2l4,0l8.24,19.2l-1.92,0l8.4-19.2l3.76,0l-9.28,21.2l-3.92,0z M137.24,48.24q-3.4,0-5.98-1.4t-4-3.84t-1.42-5.6t1.38-5.6t3.8-3.82t5.46-1.38q3.08,0,5.44,1.36t3.7,3.82t1.34,5.74q0,0.24-0.02,0.56t-0.06,0.6l-18.04,0l0-2.76l16.04,0l-1.56,0.96q0.04-2.04-0.84-3.64t-2.42-2.5t-3.58-0.9q-2,0-3.56,0.9t-2.44,2.52t-0.88,3.7l0,0.64q0,2.12,0.98,3.78t2.74,2.58t4.04,0.92q1.88,0,3.42-0.64t2.7-1.92l2.12,2.48q-1.44,1.68-3.58,2.56t-4.78,0.88z M152.28,48l0-21.2l3.68,0l0,5.76l-0.36-1.44q0.88-2.2,2.96-3.36t5.12-1.16l0,3.72q-0.24-0.04-0.46-0.04l-0.42,0q-3.08,0-4.88,1.84t-1.8,5.32l0,10.56l-3.84,0z  M185.52,48.24q-2.64,0-5.02-0.72t-3.74-1.76l1.6-3.04q1.36,0.92,3.36,1.56t4.08,0.64q2.68,0,3.86-0.76t1.18-2.12q0-1-0.72-1.56t-1.9-0.84t-2.62-0.5t-2.88-0.56t-2.64-0.96t-1.92-1.72t-0.72-2.94q0-1.92,1.08-3.36t3.06-2.22t4.7-0.78q2.08,0,4.22,0.5t3.5,1.42l-1.64,3.04q-1.44-0.96-3-1.32t-3.12-0.36q-2.52,0-3.76,0.82t-1.24,2.1q0,1.08,0.74,1.66t1.92,0.9t2.62,0.54t2.88,0.56t2.62,0.94t1.92,1.68t0.74,2.88q0,1.92-1.12,3.32t-3.16,2.18t-4.88,0.78z M226,26.6q2.56,0,4.52,1t3.06,3.04t1.1,5.16l0,12.2l-3.84,0l0-11.76q0-3.08-1.44-4.64t-4.04-1.56q-1.92,0-3.36,0.8t-2.22,2.36t-0.78,3.88l0,10.92l-3.84,0l0-11.76q0-3.08-1.42-4.64t-4.06-1.56q-1.88,0-3.32,0.8t-2.24,2.36t-0.8,3.88l0,10.92l-3.84,0l0-21.2l3.68,0l0,5.64l-0.6-1.44q1-2.08,3.08-3.24t4.84-1.16q3.04,0,5.24,1.5t2.88,4.54l-1.56-0.64q0.96-2.44,3.36-3.92t5.6-1.48z M254.92,48l0-4.48l-0.2-0.84l0-7.64q0-2.44-1.42-3.78t-4.26-1.34q-1.88,0-3.68,0.62t-3.04,1.66l-1.6-2.88q1.64-1.32,3.94-2.02t4.82-0.7q4.36,0,6.72,2.12t2.36,6.48l0,12.8l-3.64,0z M247.96,48.24q-2.36,0-4.14-0.8t-2.74-2.22t-0.96-3.22q0-1.72,0.82-3.12t2.68-2.24t5.02-0.84l6.72,0l0,2.76l-6.56,0q-2.88,0-3.88,0.96t-1,2.32q0,1.56,1.24,2.5t3.44,0.94q2.16,0,3.78-0.96t2.34-2.8l0.76,2.64q-0.76,1.88-2.68,2.98t-4.84,1.1z M265.68,48l0-21.2l3.68,0l0,5.76l-0.36-1.44q0.88-2.2,2.96-3.36t5.12-1.16l0,3.72q-0.24-0.04-0.46-0.04l-0.42,0q-3.08,0-4.88,1.84t-1.8,5.32l0,10.56l-3.84,0z M289.36,48.24q-3.2,0-4.96-1.72t-1.76-4.92l0-19.44l3.84,0l0,19.28q0,1.72,0.86,2.64t2.46,0.92q1.8,0,3-1l1.2,2.76q-0.88,0.76-2.1,1.12t-2.54,0.36z M279.04,29.96l0-3.16l13.52,0l0,3.16l-13.52,0z  M309.4,48l0-21.2l3.68,0l0,5.76l-0.36-1.44q0.88-2.2,2.96-3.36t5.12-1.16l0,3.72q-0.24-0.04-0.46-0.04l-0.42,0q-3.08,0-4.88,1.84t-1.8,5.32l0,10.56l-3.84,0z M335.24,48.24q-3.4,0-5.98-1.4t-4-3.84t-1.42-5.6t1.38-5.6t3.8-3.82t5.46-1.38q3.08,0,5.44,1.36t3.7,3.82t1.34,5.74q0,0.24-0.02,0.56t-0.06,0.6l-18.04,0l0-2.76l16.04,0l-1.56,0.96q0.04-2.04-0.84-3.64t-2.42-2.5t-3.58-0.9q-2,0-3.56,0.9t-2.44,2.52t-0.88,3.7l0,0.64q0,2.12,0.98,3.78t2.74,2.58t4.04,0.92q1.88,0,3.42-0.64t2.7-1.92l2.12,2.48q-1.44,1.68-3.58,2.56t-4.78,0.88z M357.56,48.24q-3.2,0-4.96-1.72t-1.76-4.92l0-19.44l3.84,0l0,19.28q0,1.72,0.86,2.64t2.46,0.92q1.8,0,3-1l1.2,2.76q-0.88,0.76-2.1,1.12t-2.54,0.36z M347.24,29.96l0-3.16l13.52,0l0,3.16l-13.52,0z M375.76,48.24q-2.72,0-4.78-1t-3.2-3.06t-1.14-5.18l0-12.2l3.84,0l0,11.76q0,3.12,1.5,4.68t4.22,1.56q2,0,3.48-0.82t2.28-2.4t0.8-3.82l0-10.96l3.84,0l0,21.2l-3.64,0l0-5.72l0.6,1.52q-1.04,2.12-3.12,3.28t-4.68,1.16z M393.92,48l0-21.2l3.68,0l0,5.76l-0.36-1.44q0.88-2.2,2.96-3.36t5.12-1.16l0,3.72q-0.24-0.04-0.46-0.04l-0.42,0q-3.08,0-4.88,1.84t-1.8,5.32l0,10.56l-3.84,0z M421.64,26.6q2.6,0,4.58,1t3.1,3.04t1.12,5.16l0,12.2l-3.84,0l0-11.76q0-3.08-1.5-4.64t-4.22-1.56q-2.04,0-3.56,0.8t-2.34,2.36t-0.82,3.88l0,10.92l-3.84,0l0-21.2l3.68,0l0,5.72l-0.6-1.52q1.04-2.08,3.2-3.24t5.04-1.16z  M454.4,48.24q-2.64,0-5.02-0.72t-3.74-1.76l1.6-3.04q1.36,0.92,3.36,1.56t4.08,0.64q2.68,0,3.86-0.76t1.18-2.12q0-1-0.72-1.56t-1.9-0.84t-2.62-0.5t-2.88-0.56t-2.64-0.96t-1.92-1.72t-0.72-2.94q0-1.92,1.08-3.36t3.06-2.22t4.7-0.78q2.08,0,4.22,0.5t3.5,1.42l-1.64,3.04q-1.44-0.96-3-1.32t-3.12-0.36q-2.52,0-3.76,0.82t-1.24,2.1q0,1.08,0.74,1.66t1.92,0.9t2.62,0.54t2.88,0.56t2.62,0.94t1.92,1.68t0.74,2.88q0,1.92-1.12,3.32t-3.16,2.18t-4.88,0.78z M475.64,48.24q-3.2,0-4.96-1.72t-1.76-4.92l0-19.44l3.84,0l0,19.28q0,1.72,0.86,2.64t2.46,0.92q1.8,0,3-1l1.2,2.76q-0.88,0.76-2.1,1.12t-2.54,0.36z M465.32,29.96l0-3.16l13.52,0l0,3.16l-13.52,0z M484.92,48l0-21.2l3.68,0l0,5.76l-0.36-1.44q0.88-2.2,2.96-3.36t5.12-1.16l0,3.72q-0.24-0.04-0.46-0.04l-0.42,0q-3.08,0-4.88,1.84t-1.8,5.32l0,10.56l-3.84,0z M510.4,48.24q-3.2,0-5.68-1.4t-3.92-3.86t-1.44-5.58q0-3.16,1.44-5.6t3.92-3.82t5.68-1.38q3.16,0,5.66,1.38t3.92,3.8t1.42,5.62q0,3.16-1.42,5.6t-3.92,3.84t-5.66,1.4z M510.4,44.88q2.04,0,3.66-0.92t2.54-2.62t0.92-3.94q0-2.28-0.92-3.94t-2.54-2.58t-3.66-0.92t-3.64,0.92t-2.56,2.58t-0.96,3.94q0,2.24,0.96,3.94t2.56,2.62t3.64,0.92z M538.04,26.6q2.6,0,4.58,1t3.1,3.04t1.12,5.16l0,12.2l-3.84,0l0-11.76q0-3.08-1.5-4.64t-4.22-1.56q-2.04,0-3.56,0.8t-2.34,2.36t-0.82,3.88l0,10.92l-3.84,0l0-21.2l3.68,0l0,5.72l-0.6-1.52q1.04-2.08,3.2-3.24t5.04-1.16z M563.24,56q-2.92,0-5.66-0.82t-4.46-2.34l1.84-2.96q1.48,1.28,3.64,2.02t4.52,0.74q3.76,0,5.52-1.76t1.76-5.36l0-4.48l0.4-4.2l-0.2-4.24l0-5.8l3.64,0l0,18.32q0,5.6-2.8,8.24t-8.2,2.64z M562.76,47.12q-3.08,0-5.5-1.3t-3.84-3.62t-1.42-5.36q0-3.08,1.42-5.38t3.84-3.58t5.5-1.28q2.72,0,4.96,1.1t3.58,3.38t1.34,5.76q0,3.44-1.34,5.72t-3.58,3.42t-4.96,1.14z M563.2,43.76q2.12,0,3.76-0.88t2.58-2.44t0.94-3.6t-0.94-3.6t-2.58-2.42t-3.76-0.86t-3.78,0.86t-2.6,2.42t-0.94,3.6t0.94,3.6t2.6,2.44t3.78,0.88z"/></g></svg>